<svg width="79" height="48" viewBox="0 0 79 48" fill="none" xmlns="http://www.w3.org/2000/svg">
<path d="M32.96 41.172H48.336V47H24.962L32.96 41.172ZM0.658 24.618C0.658 21.518 1.23667 18.604 2.394 15.876C3.59267 13.1067 5.246 10.668 7.354 8.56C9.462 6.41066 11.88 4.73666 14.608 3.538C17.3773 2.298 20.3533 1.678 23.536 1.678C26.6773 1.678 29.612 2.298 32.34 3.538C35.1093 4.73666 37.548 6.41066 39.656 8.56C41.8053 10.668 43.4793 13.1067 44.678 15.876C45.8767 18.604 46.476 21.518 46.476 24.618C46.476 27.8007 45.8767 30.7767 44.678 33.546C43.4793 36.3153 41.8053 38.754 39.656 40.862C37.548 42.9287 35.1093 44.5613 32.34 45.76C29.612 46.9173 26.6773 47.496 23.536 47.496C20.3533 47.496 17.3773 46.9173 14.608 45.76C11.88 44.6027 9.462 42.9907 7.354 40.924C5.246 38.8573 3.59267 36.4393 2.394 33.67C1.23667 30.9007 0.658 27.8833 0.658 24.618ZM6.858 24.68C6.858 27.036 7.292 29.2473 8.16 31.314C9.028 33.3393 10.2267 35.1373 11.756 36.708C13.2853 38.2787 15.0627 39.498 17.088 40.366C19.1133 41.234 21.304 41.668 23.66 41.668C25.9747 41.668 28.1447 41.234 30.17 40.366C32.1953 39.498 33.952 38.2787 35.44 36.708C36.928 35.1373 38.106 33.3393 38.974 31.314C39.842 29.2473 40.276 27.0153 40.276 24.618C40.276 22.3033 39.842 20.1127 38.974 18.046C38.106 15.9793 36.9073 14.1813 35.378 12.652C33.8487 11.0813 32.0713 9.862 30.046 8.994C28.0207 8.08466 25.8507 7.63 23.536 7.63C21.18 7.63 18.9893 8.08466 16.964 8.994C14.9387 9.862 13.1613 11.0813 11.632 12.652C10.1027 14.2227 8.92467 16.0413 8.098 18.108C7.27133 20.1747 6.858 22.3653 6.858 24.68Z" fill="white"/>
<path d="M65.686 20.38C67.9593 20.38 70.0467 20.938 71.948 22.054C73.8493 23.17 75.3787 24.72 76.536 26.704C77.652 28.7293 78.21 31.106 78.21 33.834C78.21 36.6447 77.6107 39.0833 76.412 41.15C75.172 43.2167 73.5393 44.8287 71.514 45.986C69.4473 47.1433 67.1947 47.722 64.756 47.722C62.4413 47.722 60.3953 47.2053 58.618 46.172C56.8407 45.18 55.4147 43.878 54.34 42.266L55.022 40.468V47.04H49.256V8.662H54.96V27.572L54.712 25.154C55.704 23.7487 57.1713 22.5913 59.114 21.682C61.0567 20.814 63.2473 20.38 65.686 20.38ZM63.764 24.968C62.276 24.968 60.912 25.2573 59.672 25.836C58.432 26.4147 57.4193 27.2 56.634 28.192C55.8073 29.2253 55.27 30.4033 55.022 31.726V36.066C55.3527 37.3887 55.9107 38.546 56.696 39.538C57.4813 40.5713 58.4733 41.3773 59.672 41.956C60.8707 42.5347 62.2347 42.824 63.764 42.824C65.2933 42.824 66.7193 42.4313 68.042 41.646C69.3647 40.8607 70.4187 39.786 71.204 38.422C71.9893 37.058 72.382 35.5287 72.382 33.834C72.382 32.1393 71.9893 30.6307 71.204 29.308C70.4187 27.9853 69.3647 26.9313 68.042 26.146C66.7193 25.3607 65.2933 24.968 63.764 24.968Z" fill="white"/>
</svg>
